[img]http://img543.imageshack.us/img543/3010/capdj.jpg[/img]
[code]
IMDB Link/Rating
 
http://www.imdb.com/title/tt0458339/

8.0/10

Plot:
After being deemed unfit for military service, Steve Rogers volunteers for a top secret research project that turns him into Captain America, a superhero dedicated to defending America's ideals.

Source Used

Captain America The First Avenger 2011 CAM XVID AC3 - SCR0N (Thanks)

General

Complete name                    : Captain America The First Avenger 2011 CAM x264-Jucified (500MB).mp4
Format                           : MPEG-4
Format profile                   : Base Media
Codec ID                         : isom
File size                        : 500 MiB
Duration                         : 1h 53mn
Overall bit rate                 : 615 Kbps

Video

Format                           : AVC
Format/Info                      : Advanced Video Codec
Format profile                   : High@L4.1
Format settings, CABAC           : Yes
Format settings, ReFrames        : 2 frames
Codec ID                         : avc1
Codec ID/Info                    : Advanced Video Coding
Duration                         : 1h 53mn
Bit rate mode                    : Variable
Bit rate                         : 563 Kbps
Maximum bit rate                 : 1 552 Kbps
Width                            : 720 pixels
Height                           : 336 pixels
Display aspect ratio             : 2.2
Frame rate mode                  : Constant
Frame rate                       : 29.970 fps
Resolution                       : 24 bits
Colorimetry                      : 4:2:0
Scan type                        : Progressive
Bits/(Pixel*Frame)               : 0.078
Stream size                      : 458 MiB (92%)

Audio

Format                           : AAC
Format/Info                      : Advanced Audio Codec
Format version                   : Version 4
Format profile                   : LC
Format settings, SBR             : No
Codec ID                         : 40
Duration                         : 1h 53mn
Bit rate mode                    : Variable
Bit rate                         : 48.0 Kbps
Maximum bit rate                 : 52.7 Kbps
Channel(s)                       : 2 channels
Channel positions                : L R
Sampling rate                    : 48.0 KHz
Resolution                       : 16 bits
Stream size                      : 39.0 MiB (8%)
[/code]
Screens:
[img]http://img28.imageshack.us/img28/9444/45811741.png[/img]
[img]http://img801.imageshack.us/img801/9673/64757954.png[/img]
[img]http://img197.imageshack.us/img197/1417/88874606.png[/img]
[img]http://img12.imageshack.us/img12/7840/34755118.png[/img]